# xmcd
#
# Track frame offsets:
#	150
#	22819
#	43780
#	57401
#	75231
#	93259
#	113447
#	129527
#	146024
#	157829
#	189464
#	212061
#
# Disc length: 3338
#
# Revision: 1
# Processed by: cddbd v1.5.1PL0 Copyright (c) Steve Scherf et al.
# Submitted via: CDex 1.50Beta7
# Normalized: r0:DSETVAR1,TDELIM( - )
#
DISCID=900d080c
DTITLE=Various Artist - Get ready for a brand-new age
DYEAR=1999
DGENRE=New Age
TTITLE0=Moneille - Adiemus
TTITLE1=Oliver Shanti and Friends - Four Circles Of Life
TTITLE2=Pow-wow - Kayama
TTITLE3=Vicky Sampson - African Dream
TTITLE4=Gregor Theelen - Maniwaki
TTITLE5=Kamar-oun - Awa Awa
TTITLE6=Akhawl - Indian Moods
TTITLE7=Haiku - Mystera
TTITLE8=Sylver - Ceasarea
TTITLE9=Thandi Moore - Ingoma
TTITLE10=Quoise - Hidden Lagoon
TTITLE11=Oliver Shanti and Friends - Well Balanced
EXTD=YEAR: 1999
EXTT0=
EXTT1=
EXTT2=
EXTT3=
EXTT4=
EXTT5=
EXTT6=
EXTT7=
EXTT8=
EXTT9=
EXTT10=
EXTT11=
PLAYORDER=
